<svg height="157" width="157" xmlns="http://www.w3.org/2000/svg" viewBox="0 0 460 460" xml:space="preserve"><g stroke-width="0"/><path d="M392.634 67.365C349.193 23.925 291.435 0 230 0 169.149 0 111.914 23.484 68.617 66.144c-.473.331-.929.699-1.352 1.122s-.791.878-1.122 1.352C23.484 111.915 0 169.149 0 230c0 61.369 23.875 119.067 67.227 162.493l.036.04.025.022.077.079C110.807 436.076 168.565 460 230 460s119.193-23.924 162.634-67.366C436.076 349.194 460 291.435 460 230s-23.924-119.193-67.366-162.635zm-7.308 303.82L244.094 229.952l141.23-141.139C419.277 126.133 440 175.692 440 230c0 54.308-20.722 103.866-54.674 141.185zM371.182 74.672 229.953 215.811 88.816 74.674C126.135 40.722 175.693 20 230 20c54.306 0 103.864 20.721 141.182 54.672zM74.674 88.816l141.132 141.132L74.581 371.083C40.684 333.776 20 284.258 20 230c0-54.307 20.722-103.865 54.674-141.184zm14.041 296.417 141.233-141.142 141.236 141.237C333.865 419.279 284.307 440 230 440c-54.357 0-103.955-20.76-141.285-54.767z"/></svg>